<?xml version="1.0" encoding="UTF-8"?>
<!DOCTYPE svg PUBLIC "-//W3C//DTD SVG 1.1//EN" "http://www.w3.org/Graphics/SVG/1.1/DTD/svg11.dtd">
<!-- Creator: CorelDRAW 2019 (64-Bit) -->
<svg xmlns="http://www.w3.org/2000/svg" xml:space="preserve" width="3300px" height="720px" version="1.1" style="shape-rendering:geometricPrecision; text-rendering:geometricPrecision; image-rendering:optimizeQuality; fill-rule:evenodd; clip-rule:evenodd"
viewBox="0 0 3300 719.98"
 xmlns:xlink="http://www.w3.org/1999/xlink"
 xmlns:xodm="http://www.corel.com/coreldraw/odm/2003">
 <defs>
  <style type="text/css">
   <![CDATA[
    .fil0 {fill:#0064D3}
    .fil1 {fill:#FEDD00}
   ]]>
  </style>
 </defs>
 <g id="Layer_x0020_1">
  <metadata id="CorelCorpID_0Corel-Layer"/>
  <path class="fil0" d="M215.59 474.38c-7.05,-6.5 -16.45,-10.49 -26.74,-10.49l-13.65 0c-9.71,0 -24.32,-13.23 -24.32,-24.25l0 -59.01 0 -37.23 0 -73.15 32.21 0c21.65,0 39.36,-17.71 39.36,-39.35l0 0c0,-21.65 -17.71,-39.36 -39.36,-39.36l-32.21 0 0 -53.57c0,-24.47 -20.02,-44.49 -44.49,-44.49 -24.47,0 -44.49,20.02 -44.49,44.49l0 53.57 -22.54 0c-21.65,0 -39.36,17.71 -39.36,39.36l0 0c0,21.64 17.71,39.35 39.36,39.35l22.54 0c0,65.68 0,126.94 0,192.62 -0.62,13.88 5.61,28.05 5.61,28.05 9.87,25.47 32.21,44.73 59.53,50.28 5.26,1.07 10.7,1.63 16.27,1.63l45.54 0c21.71,0 39.47,-17.76 39.47,-39.47 0,-7.86 -2.32,-15.2 -6.32,-21.37 -1.82,-2.8 -3.97,-5.35 -6.41,-7.61zm767.92 -90.62l-171.3 0c35.85,120.57 137.45,79.2 177.84,61.26 14.7,-6.53 47.75,9.93 43.79,37.37 -3.96,27.44 -39.44,39.44 -39.44,39.44 0,0 -45.03,18.53 -99.8,16.4 -99.76,-3.89 -170.87,-81.04 -173.9,-182.23 3.03,-101.2 79.8,-182.24 174.08,-182.24 146.69,0 229.43,210 130.03,210l-41.3 0zm0 -61.27c-7.42,-43.63 -43.39,-79.02 -85.65,-79.02 -42.27,0 -78.45,34.12 -85.65,79.02l171.3 0zm283.89 151.89c-7.05,-6.5 -16.45,-10.49 -26.74,-10.49l-13.65 0c-9.71,0 -24.32,-13.23 -24.32,-24.25l0 -59.01 0 -37.23 0 -73.15 32.22 0c21.64,0 39.35,-17.71 39.35,-39.35l0 0c0,-21.65 -17.71,-39.36 -39.35,-39.36l-32.22 0 0 -53.57c0,-24.47 -20.02,-44.49 -44.49,-44.49 -24.47,0 -44.49,20.02 -44.49,44.49l0 53.57 -22.54 0c-21.65,0 -39.36,17.71 -39.36,39.36l0 0c0,21.64 17.71,39.35 39.36,39.35l22.54 0c0,65.68 0,126.94 0,192.62 -0.62,13.88 5.61,28.05 5.61,28.05 9.87,25.47 32.21,44.73 59.53,50.28 5.26,1.07 10.7,1.63 16.28,1.63l45.53 0c21.71,0 39.47,-17.76 39.47,-39.47 0,-7.86 -2.32,-15.2 -6.32,-21.37 -1.81,-2.8 -3.97,-5.35 -6.41,-7.61zm-848.87 -249.91l0 267.74c0,24.47 20.02,44.49 44.49,44.49 24.47,0 44.49,-20.02 44.49,-44.49l0 -29.59 0 -15.16 39.79 -45.65 6 8.28 78.48 108.08c13.92,19.18 41,23.47 60.17,9.55 19.17,-13.92 23.47,-41 9.55,-60.17l-90.11 -124.11 80.62 -92.49c14.41,-16.54 12.67,-41.85 -3.86,-56.26 -16.53,-14.41 -41.84,-12.67 -56.25,3.86l-68.58 78.68 -55.81 64.03 0 -140.89 0 -102.69c0,-24.47 -20.02,-44.49 -44.49,-44.49 -24.44,0 -44.44,19.97 -44.49,44.4 0,0.03 0,0.06 0,0.09l0 126.79zm-108.62 -48.12l0 0c24.47,0 44.49,20.02 44.49,44.49l0 264.18c0,24.47 -20.02,44.49 -44.49,44.49l0 0c-24.47,0 -44.49,-20.02 -44.49,-44.49l0 -264.18c0,-24.47 20.02,-44.49 44.49,-44.49z"/>
  <path class="fil0" d="M2195.76 354.79c0,-69.52 51.83,-125.87 115.77,-125.87 18.63,0 36.23,4.78 51.82,13.28 9.46,5.16 18.19,11.69 25.95,19.35 0.25,0.08 0.5,0.16 0.74,0.25 2.97,1.06 6.18,1.63 9.51,1.63 15.7,0 28.42,-12.72 28.42,-28.42 0,-5.18 -1.38,-10.04 -3.8,-14.21 -0.17,-0.29 -0.31,-0.59 -0.44,-0.9 -7.24,-6.84 -15.03,-13.04 -23.3,-18.55 -27.14,-18.08 -59.41,-28.55 -94.03,-28.55 -96.52,0 -174.77,81.48 -174.77,181.99 0,100.51 78.25,181.99 174.77,181.99 31.61,0 61.25,-8.73 86.84,-24.01 11.33,-6.77 21.87,-14.82 31.42,-23.97 0.07,-0.14 0.14,-0.28 0.21,-0.41 1.98,-3.88 3.1,-8.27 3.1,-12.93 0,-15.7 -12.72,-28.42 -28.42,-28.42 -4.27,0 -8.31,0.94 -11.95,2.63 -3.58,3.4 -7.37,6.57 -11.32,9.47 -0.02,0.02 -0.03,0.04 -0.04,0.06 -0.29,0.41 -0.73,0.71 -1.29,0.91 -6.42,4.58 -13.29,8.48 -20.51,11.62 -13.27,5.76 -27.75,8.93 -42.91,8.93 -63.94,0 -115.77,-56.35 -115.77,-125.87zm694.7 -123.28l0 -21.93c0,-16.79 -13.74,-30.53 -30.53,-30.53 -16.79,0 -30.53,13.74 -30.53,30.53l0 290.31c0,16.79 13.74,30.53 30.53,30.53 16.79,0 30.53,-13.74 30.53,-30.53l0 -224.07c40.7,-45.87 114.17,-80.61 140.54,0l0 224.07c0,16.79 13.74,30.53 30.53,30.53 16.79,0 30.53,-13.74 30.53,-30.53l0 -224.07c59.6,-59.84 114.55,-66.5 146.88,0l0 224.07c0,16.79 13.74,30.53 30.53,30.53 16.79,0 30.53,-13.74 30.53,-30.53l0 -244.61c-8.38,-34.95 -26.39,-57.79 -48.98,-69.98 -48.41,-26.13 -117.91,-3.35 -158.96,53.86 -2.81,-8.64 -6.44,-16.38 -10.76,-23.22 -37.98,-60.11 -129.55,-51.48 -190.84,15.57zm-266.02 -58.71c96.53,0 174.78,81.48 174.78,181.99 0,100.51 -78.25,181.99 -174.78,181.99 -96.53,0 -174.78,-81.48 -174.78,-181.99 0,-100.51 78.25,-181.99 174.78,-181.99zm-0.8 56.12c60.26,0 109.11,56.35 109.11,125.87 0,69.52 -48.85,125.87 -109.11,125.87 -60.27,0 -109.12,-56.35 -109.12,-125.87 0,-69.52 48.85,-125.87 109.12,-125.87z"/>
  <path class="fil1" d="M1705.97 0c198.82,0 359.99,161.17 359.99,359.99 0,198.82 -161.17,359.99 -359.99,359.99 -198.82,0 -359.99,-161.17 -359.99,-359.99 0,-198.82 161.17,-359.99 359.99,-359.99z"/>
 </g>
</svg>
